# xmcd CD database file
#
# Track frame offsets:
#	150
#	35502
#	92765
#	164318
#
# Disc length: 2598 seconds
#
# Revision: 0
# Processed by: cddbd v1.5.2PL0 Copyright (c) Steve Scherf et al.
# Submitted via: CDex 1.81
#
DISCID=280a2404
DTITLE=Khan Jamal - Drum dance to the motherland
DYEAR=1972
DGENRE=Jazz
TTITLE0=Cosmic echos
TTITLE1=Drum dance to the motherland
TTITLE2=Inner peace
TTITLE3=Breath of life
EXTD=YEAR: 1972
EXTT0=
EXTT1=
EXTT2=
EXTT3=
PLAYORDER=
